<?xml version="1.0" encoding="UTF-8"?><svg xmlns="http://www.w3.org/2000/svg" xmlns:svg="http://www.w3.org/2000/svg" version="1.0" width="1200" height="800" id="svg2040">
  <defs id="defs2163"/>
  <path d="M1200,0L1200,800L0,800L0,0L1200,0z" id="path2042" style="fill:#ffff00"/>
  <path d="M480.21108,726.90586C478.95293,726.17318 478.95232,726.16948 479.89314,724.94525L480.62501,723.99297L482.0031,724.73514L483.38131,725.47731L484.34579,724.57121L485.31027,723.66512L486.49827,724.4173L487.68625,725.16947L486.69452,726.1012C485.85602,726.88897 485.58622,726.96019 484.9489,726.56219C483.88875,725.90009 483.00641,725.97589 482.07706,726.80893C481.33188,727.47694 481.20312,727.48363 480.21108,726.90586zM646.54747,721.98436C647.1345,721.71472 647.18336,720.58178 646.63167,720.03009C646.41144,719.80985 646.33308,719.36428 646.45754,719.03995C646.64048,718.56331 646.91099,718.6624 647.86831,719.5567C648.51977,720.16527 649.427,720.67548 649.88414,720.6905C650.49237,720.71049 650.35132,720.85173 649.35857,721.21671C647.85592,721.76914 645.78446,722.33479 646.54747,721.98436zM476.16795,721.29304C475.27742,721.00095 473.92103,720.37393 473.15363,719.89969C469.01042,717.33903 469.80845,711.37022 475.21893,704.45292C477.44475,701.60727 478.36109,701.87134 476.24836,704.74954C474.4546,707.19308 473.56089,709.80067 473.82997,711.80619C474.05962,713.5192 474.86279,714.59989 476.62295,715.56465C479.19979,716.97708 492.6062,715.92418 493.24516,714.25919C493.56166,713.43437 492.94636,713.2246 489.40227,712.94902C487.62511,712.81083 486.05454,712.5813 485.91226,712.43897C485.42182,711.94859 487.07208,708.47008 488.44782,707.09433C490.79809,704.74412 492.68998,704.37843 502.49779,704.37843L511.02852,704.37843L510.86801,701.85925C510.6613,698.61108 510.27688,698.23902 508.63881,699.70148C506.33586,701.75753 503.56533,701.72147 501.79062,699.61238C500.85809,698.50412 500.78229,698.17189 500.95919,695.96835C501.2043,692.91474 503.60117,687.83418 505.21917,686.9389C506.17403,686.41051 506.39671,686.4107 507.35157,686.94074C508.69125,687.68434 510.6232,690.53183 511.75434,693.42978C512.51386,695.37585 512.64374,696.56489 512.79155,702.92443L512.96035,710.19441L503.22537,710.19441C495.13223,710.19441 493.49017,710.28611 493.49017,710.73808C493.49017,711.0371 494.01359,711.46421 494.65336,711.68724C495.42672,711.95682 495.81657,712.35455 495.81657,712.87383C495.81657,714.38946 494.208,717.9286 493.09263,718.86718C490.66555,720.9094 479.76264,722.47215 476.16795,721.29304zM507.23941,695.36365L508.23687,694.49126L507.46066,693.23112C506.21121,691.20274 503.57127,691.91465 503.57127,694.27993C503.57127,696.32583 505.49102,696.89302 507.23941,695.36365zM549.12977,720.02772C548.27683,719.53165 547.40453,719.06463 547.19148,718.98988C546.69776,718.81671 548.53393,714.84237 549.09904,714.86094C549.3293,714.8685 549.95372,715.12403 550.48687,715.42879C552.05969,716.32794 552.64948,716.11586 553.60977,714.30578C554.50245,712.62298 554.52673,712.6089 555.50535,713.20609C556.05059,713.53881 556.89574,714.05239 557.3833,714.34739L558.26994,714.88374L557.22485,716.80413C556.10938,718.85345 555.76501,719.02624 554.58081,718.1306C553.22269,717.1033 552.29682,717.43595 551.45617,719.25327L550.68067,720.92966L549.12977,720.02772zM732.35837,719.86602C730.39334,718.97454 724.57867,714.88704 724.57867,714.39715C724.57867,713.85267 725.17092,714.02352 727.14701,715.138C728.74339,716.03836 729.4899,716.20427 731.94557,716.20427C735.39143,716.20427 737.26387,715.42491 740.37867,712.69426C742.83711,710.53909 742.9844,709.80725 740.96038,709.80522C738.99063,709.80326 737.07068,708.55315 736.33574,706.79407C734.65588,702.77362 738.03742,693.90965 741.25107,693.90965C742.50964,693.90965 744.2658,695.77753 744.99839,697.89536C745.54219,699.46764 745.69983,701.1313 745.70434,705.34777C745.70976,710.57512 745.66787,710.86209 744.5694,713.1024C743.94223,714.38192 742.54631,716.3074 741.4676,717.38126C738.146,720.6878 735.66298,721.36513 732.35837,719.86602zM743.18967,703.6282C743.18967,700.68127 740.04987,698.39874 738.91442,700.52028C737.81811,702.56874 739.22039,704.36042 741.92968,704.37272C742.91904,704.3772 743.18967,704.21729 743.18967,703.6282zM390.15956,719.75479C382.81346,717.84695 381.11864,712.22888 385.34524,703.79683C387.18734,700.12179 388.16433,698.74961 388.70208,699.08199C388.93931,699.2286 388.47295,700.51387 387.52895,702.31544C386.23873,704.77773 385.93083,705.79372 385.78466,708.07102C385.6136,710.73542 385.65212,710.88761 386.83519,712.23508C388.67801,714.33388 390.93282,715.04107 395.78167,715.04107C399.53359,715.04107 400.03386,714.94984 402.16185,713.87786C403.43189,713.23811 404.81992,712.23251 405.24644,711.64322C406.43321,710.00334 406.22056,706.96149 404.68646,703.63306L403.45064,700.95201L404.3846,698.15007L405.31855,695.34811L406.45604,697.82767C407.50329,700.11084 407.6045,700.72618 407.73366,705.59646C407.92213,712.70992 407.45229,714.93643 405.33126,716.97972C404.25348,718.01802 402.95385,718.77308 401.39936,719.26411C398.48419,720.18497 392.77544,720.43419 390.15956,719.75479zM437.9742,719.29417C436.97591,718.77435 436.05649,718.18279 435.93081,717.97961C435.67515,717.56592 437.65676,713.29626 438.10449,713.29626C438.26183,713.29626 439.43066,713.90582 440.70192,714.65084L443.01306,716.00542L441.85673,718.14043C441.22074,719.31468 440.49542,720.26733 440.24478,720.25739C439.99423,720.24747 438.97248,719.81402 437.9742,719.29417zM648.24464,717.06036C649.24078,716.24832 650.26702,716.33109 650.44157,717.23754C650.54052,717.75139 650.25832,717.86269 648.97825,717.81468C647.39273,717.75521 647.39252,717.75496 648.24464,717.06036zM643.93037,710.26196C643.93037,707.11984 643.93313,707.11098 645.15441,706.47945C646.70316,705.67852 650.13397,702.49026 650.13397,701.85186C650.13397,701.58685 648.81907,699.86594 647.21183,698.02758C644.43996,694.85706 643.0633,693.99044 642.67047,695.16881C642.45363,695.81956 639.04464,693.69688 637.95775,692.23429C637.2978,691.34616 637.11977,690.45316 637.01058,687.48458C636.93212,685.34892 637.02892,683.82862 637.2433,683.82862C638.65326,683.82862 645.17603,690.4007 649.02823,695.70274C650.33699,697.50409 651.58684,698.91825 651.80563,698.8453C652.50738,698.61144 653.26875,695.74714 653.50813,692.4421C653.72365,689.46451 653.67776,689.17109 652.87951,688.42735C652.15062,687.74837 652.05945,687.38071 652.28654,686.03677C652.43414,685.16326 652.76305,683.84732 653.01749,683.11246L653.48007,681.77636L654.27605,683.12546C654.8852,684.15814 655.49323,684.59254 656.86795,684.97745C658.86258,685.5359 658.92076,685.69563 658.2566,688.7925C657.8982,690.46382 657.74476,690.67275 656.98277,690.52709C656.17326,690.37235 656.08712,690.56262 655.66972,693.42697C655.42398,695.11299 654.77581,697.50336 654.22945,698.7389C653.00929,701.49776 653.00878,701.57565 654.20056,703.66032C655.18512,705.38252 655.45257,708.31176 654.83255,710.58214C654.48307,711.86206 651.47796,712.8788 647.13972,713.18496L643.93037,713.41144L643.93037,710.26196zM651.75483,706.47479C652.63481,706.01973 652.7652,705.77169 652.50154,705.05402C652.32588,704.57581 651.85224,704.14158 651.44887,704.08904C650.68382,703.9894 647.80757,706.40005 647.80757,707.14093C647.80757,707.6705 650.23476,707.26092 651.75483,706.47479zM580.41059,712.12168C580.50483,711.83908 581.75151,711.21334 583.18102,710.73111C586.96706,709.454 592.80959,706.17179 595.22245,703.96659C596.45294,702.84196 597.59136,701.37039 597.97864,700.40349C598.96863,697.93256 599.13427,693.87212 598.41376,689.73532L597.78802,686.14258L598.9756,683.53161C599.89389,681.51255 600.24163,681.05932 600.50949,681.53237C601.13196,682.6319 601.64012,686.99119 602.03355,694.60854C602.26699,699.12926 602.61812,702.50689 602.92009,703.13865C603.39219,704.12616 603.58968,704.19092 606.45752,704.29846C610.44074,704.44783 612.4954,703.54471 613.66392,701.13085C614.10314,700.22332 614.46267,699.01792 614.46267,698.4522C614.46267,697.69717 614.61734,697.48294 615.04417,697.64677C615.47089,697.81048 615.62587,698.48346 615.62587,700.17248C615.62587,702.10017 615.78075,702.62995 616.57755,703.42672C617.4309,704.28009 617.85292,704.37843 620.66114,704.37843C625.47281,704.37843 626.84518,703.58085 627.40824,700.4574C627.54704,699.68698 628.0303,698.72734 628.48191,698.32488L629.3031,697.59311L629.10735,700.4083L628.91171,703.22348L631.03151,703.83974C632.19737,704.17868 633.29666,704.30769 633.47427,704.12641C633.65188,703.94514 633.47591,702.88912 633.08319,701.77969L632.36915,699.76257L633.6733,697.92817L634.97754,696.09375L635.41492,697.23116C635.65553,697.85673 635.95227,701.0571 636.07468,704.34306L636.29695,710.31757L634.00312,710.07781C632.74159,709.94595 630.93216,709.56385 629.98222,709.2287C628.35316,708.65392 628.15116,708.66404 626.4245,709.40688C623.78579,710.54201 617.72477,710.54318 616.28265,709.40883C615.73332,708.97676 615.17456,708.27885 615.04099,707.8579C614.70973,706.81412 614.00235,706.89733 612.88237,708.11184C611.48492,709.62725 609.77371,710.19441 606.59908,710.19441C603.99623,710.19441 603.66415,710.10271 602.7392,709.12815C601.6268,707.95609 600.70933,705.80294 600.30217,703.4091L600.03852,701.85816L598.69924,704.50671C595.85177,710.13823 592.48673,712.008 584.45895,712.41932C581.05724,712.5936 580.27262,712.53592 580.41059,712.12168zM665.4131,711.48705C665.11852,711.38031 665.09373,710.66574 665.33178,709.14743C665.73505,706.57644 665.23016,700.30903 664.02262,692.89621L663.19436,687.81157L664.48038,685.14156L665.76629,682.47155L666.86189,688.86914C667.46428,692.38782 668.07394,697.56994 668.21632,700.38499C668.46635,705.32743 668.43859,705.6039 667.40702,708.43228C666.29831,711.47202 666.1211,711.74358 665.4131,711.48705zM810.81271,711.48705C810.51812,711.38031 810.49333,710.66574 810.73138,709.14743C811.13465,706.57644 810.62967,700.30903 809.42221,692.89621L808.59397,687.81157L809.87998,685.14156L811.16589,682.47155L812.26149,688.86914C812.86398,692.38782 813.47355,697.56994 813.61592,700.38499C813.86596,705.32743 813.8382,705.6039 812.80662,708.43228C811.69791,711.47202 811.52071,711.74358 810.81271,711.48705zM413.03167,708.91085C411.21681,707.09597 410.8285,705.20178 410.55265,696.81765C410.3443,690.48972 410.20664,689.29683 409.57629,688.35946C408.85087,687.28045 408.85261,687.2434 409.73494,685.06373C410.22569,683.85128 410.75475,682.71539 410.91054,682.53954C411.06634,682.36368 411.60297,683.0616 412.10304,684.09047C412.92872,685.78902 413.03648,686.67466 413.27443,693.71579C413.52569,701.14896 413.88338,703.4263 414.90174,704.0738C415.5025,704.45579 430.18877,704.4679 430.42446,704.08661C430.70491,703.6327 429.72128,701.08041 428.82839,699.94517L428.0237,698.92224L428.80933,696.5958C429.41992,694.78798 429.70622,694.36165 430.09371,694.68332C431.04171,695.47 432.16537,698.76643 432.4404,701.56737L432.71644,704.37843L438.07172,704.37843C441.0171,704.37843 443.5081,704.24711 443.60736,704.08661C443.88782,703.6327 442.90418,701.08041 442.01129,699.94517L441.2066,698.92224L441.99224,696.5958C442.60282,694.78798 442.88901,694.36165 443.27671,694.68332C444.22461,695.47 445.34827,698.76643 445.62329,701.56737L445.89934,704.37843L450.24352,704.37843C452.63281,704.37843 454.67456,704.29149 454.78088,704.18523C454.8872,704.07897 454.30909,700.28406 453.49631,695.75205C452.27493,688.9413 451.87759,687.39627 451.20566,686.84439C450.31266,686.11089 450.34442,685.81554 451.68657,682.37462C452.55015,680.1608 453.43044,679.71827 453.62496,681.40025C453.71612,682.189 454.17081,682.69423 455.39547,683.36797C456.35933,683.89819 457.04337,684.5556 457.04337,684.95179C457.04337,686.12784 455.8437,689.2059 455.33677,689.33089C454.96762,689.42188 455.15886,691.17798 456.13092,696.62378C456.87938,700.81643 457.4155,705.12593 457.42123,706.99562L457.43117,710.19441L435.87314,710.19441L414.31532,710.19441L413.03167,708.91085zM540.72678,709.60074C539.34992,708.85298 537.70119,705.40186 537.42023,702.67892C537.2966,701.48112 537.10586,700.50111 536.99637,700.50111C536.88687,700.50111 535.85314,701.39401 534.69927,702.48532C532.7201,704.35718 532.51433,704.45565 531.06637,704.22411C527.56007,703.66344 525.67197,703.12337 525.67197,702.68107C525.67197,702.42264 526.50074,700.56143 527.51367,698.54508C529.22661,695.13532 529.54179,694.75134 532.02071,693.05356C533.48659,692.04956 534.84615,691.1747 535.042,691.10943C535.23785,691.04415 535.46299,690.19469 535.54226,689.22175C535.69899,687.29778 536.94895,684.0384 537.16436,684.99183C537.23667,685.3117 537.82442,689.033 538.47055,693.26139C539.61111,700.72615 540.323,703.45149 541.29322,704.0681C541.90044,704.45396 556.58732,704.47146 556.82506,704.08661C557.10572,703.6327 556.12208,701.08041 555.22899,699.94517L554.4245,698.92224L555.21014,696.5958C555.82063,694.78798 556.10692,694.36165 556.49452,694.68332C557.44743,695.47422 558.56668,698.77272 558.8455,701.61218L559.12596,704.46807L562.46417,704.30208C566.28339,704.11215 567.13458,703.70631 568.35678,701.49236C569.83464,698.81545 571.31794,697.17575 573.13229,696.21324L574.87494,695.28875L575.8175,696.17423C576.33581,696.66124 577.34106,698.31384 578.05121,699.84666C579.17476,702.27176 579.36314,703.13114 579.50173,706.46511L579.66111,710.29661L577.77219,710.0225C576.73334,709.87176 574.3466,709.23809 572.46854,708.61435C568.38793,707.2591 568.25886,707.25146 567.31639,708.30926C565.75075,710.06646 564.7583,710.19535 552.92266,710.17888C543.92671,710.16637 541.5619,710.05427 540.72678,709.60074zM575.30167,703.49551C575.30167,702.36571 573.25971,700.11337 572.23541,700.11337C571.38288,700.11337 570.64886,701.16303 570.64886,702.38197C570.64886,702.93626 571.10847,703.31325 572.29677,703.73391C574.69364,704.58235 575.30167,704.53412 575.30167,703.49551zM535.40235,697.89724C536.60375,697.18758 536.66245,697.00308 536.28612,695.12132C536.13012,694.34151 535.81176,693.90965 535.39272,693.90965C534.3423,693.90965 531.23312,696.07397 530.99928,696.96781C530.58925,698.53595 533.33868,699.11632 535.40235,697.89724zM698.14609,709.60074C696.76922,708.85298 695.1205,705.40186 694.83953,702.67892C694.7159,701.48112 694.52517,700.50111 694.41567,700.50111C694.30607,700.50111 693.27244,701.39401 692.11857,702.48532C690.1394,704.35718 689.93363,704.45565 688.48556,704.22411C684.97927,703.66344 683.09127,703.12337 683.09127,702.68107C683.09127,702.42264 683.92004,700.56143 684.93308,698.54508C686.64592,695.13532 686.9611,694.75134 689.43991,693.05356C690.90579,692.04956 692.26535,691.1747 692.4613,691.10943C692.65715,691.04415 692.88229,690.19469 692.96157,689.22175C693.11829,687.29778 694.36825,684.0384 694.58366,684.99183C694.65597,685.3117 695.24147,689.01869 695.88483,693.22959C697.19082,701.77667 697.82794,703.87933 699.21792,704.22818C699.7229,704.35492 702.2768,704.39228 704.89349,704.31123C710.2549,704.14515 710.87246,703.90709 712.20559,701.49236C713.68335,698.81545 715.16665,697.17575 716.98089,696.21324L718.72364,695.28875L719.6661,696.17423C720.18461,696.66124 721.18966,698.31384 721.89991,699.84666C723.02336,702.27176 723.21174,703.13114 723.35043,706.46511L723.50971,710.29661L721.62079,710.0225C720.58194,709.87176 718.19541,709.23809 716.31725,708.61435C712.23653,707.2591 712.10756,707.25146 711.16499,708.30926C709.84303,709.793 708.20548,710.19538 703.55656,710.17888C700.49349,710.16801 698.8716,709.9947 698.14609,709.60074zM719.15037,703.49551C719.15037,702.36571 717.10831,700.11337 716.08401,700.11337C715.23159,700.11337 714.49768,701.16303 714.49768,702.38197C714.49768,702.93626 714.95718,703.31325 716.14548,703.73391C718.54235,704.58235 719.15037,704.53412 719.15037,703.49551zM692.82176,697.89724C694.02306,697.18758 694.08175,697.00308 693.70542,695.12132C693.54952,694.34151 693.23106,693.90965 692.81202,693.90965C691.7617,693.90965 688.65232,696.07397 688.41858,696.96781C688.00855,698.53595 690.75799,699.11632 692.82176,697.89724zM750.74648,708.91085C748.93161,707.09597 748.5433,705.20178 748.26735,696.81765C748.05911,690.48972 747.92145,689.29683 747.29108,688.35946C746.56568,687.28045 746.56742,687.2434 747.44965,685.06373C747.9405,683.85128 748.46944,682.71539 748.62524,682.53954C748.78104,682.36368 749.31767,683.0616 749.81784,684.09047C750.64261,685.78705 750.75221,686.68285 750.99579,693.71579C751.28126,701.95805 751.65524,703.88893 753.01869,704.16282C753.47727,704.25492 756.68765,704.41801 760.15307,704.52524C767.00434,704.73727 767.97988,704.4257 764.69484,703.07469C762.58723,702.2079 761.80087,700.90051 761.80087,698.26304C761.80087,695.60398 762.81698,692.93388 764.50319,691.16127C766.19299,689.38492 767.42963,689.21661 768.88445,690.56496C770.95272,692.48181 772.30101,696.20372 772.62397,700.88883L772.85138,704.18456L775.99323,704.18456C779.7306,704.18456 780.7633,703.72614 781.97721,701.52831C783.47464,698.81685 784.95076,697.1798 786.76706,696.21626C788.49711,695.29851 788.50745,695.29786 789.34708,696.05622C790.37569,696.9852 792.19649,700.51415 792.79602,702.74035L793.23708,704.37843L797.6165,704.37843C800.02515,704.37843 802.08277,704.29149 802.18899,704.18523C802.29532,704.07897 801.7172,700.28406 800.90441,695.75205C799.68313,688.9413 799.2857,687.39627 798.61376,686.84439C797.72076,686.11089 797.75252,685.81554 799.09477,682.37462C799.95836,680.1608 800.83855,679.71827 801.03306,681.40025C801.12423,682.189 801.57891,682.69423 802.80357,683.36797C803.76745,683.89819 804.45147,684.5556 804.45147,684.95179C804.45147,686.12784 803.25181,689.2059 802.74477,689.33089C802.37562,689.42188 802.56696,691.17798 803.53902,696.62378C804.29537,700.86047 804.82361,705.1209 804.82934,707.0313L804.83927,710.26578L797.37527,710.11828C790.16826,709.97583 789.78733,709.92793 786.30295,708.72553C782.02832,707.25047 781.90858,707.24113 780.9569,708.30926C779.36708,710.09345 778.50594,710.19441 764.87645,710.19441L752.03003,710.19441L750.74648,708.91085zM788.94217,703.49551C788.94217,702.36571 786.90012,700.11337 785.87581,700.11337C785.02338,700.11337 784.28948,701.16303 784.28948,702.38197C784.28948,702.93626 784.74897,703.31325 785.93727,703.73391C788.33415,704.58235 788.94217,704.53412 788.94217,703.49551zM769.94327,700.38315C769.94327,700.10501 769.42692,699.06324 768.79574,698.06808C767.12869,695.43925 764.51497,694.98678 764.51497,697.32698C764.51497,698.64772 765.46348,699.60281 767.49426,700.32709C769.38195,701.0003 769.94327,701.01316 769.94327,700.38315zM594.5968,698.60986C592.54512,694.95997 588.09687,691.74339 588.09687,693.90965C588.09687,694.98299 587.3143,694.87969 585.53785,693.57185C582.11637,691.05298 581.11767,689.26823 581.11767,685.6729C581.11767,683.47416 581.46358,683.3773 584.27437,684.78905C587.0992,686.20795 589.1812,687.74198 591.73069,690.28323C594.62046,693.16359 596.23272,695.92212 596.22964,697.98084C596.22595,700.48717 595.75426,700.66889 594.5968,698.60986zM394.99633,693.86898C393.82944,693.23088 392.73344,692.56748 392.56074,692.39476C392.2134,692.04733 394.20362,687.70595 394.71034,687.70595C394.8852,687.70595 396.07124,688.2324 397.34578,688.87583L399.66337,690.04572L398.45213,692.46235C397.78582,693.79151 397.21303,694.91277 397.17923,694.95406C397.14552,694.99534 396.16311,694.50705 394.99633,693.86898zM427.09639,688.07151L424.87222,686.92345L426.09923,684.43522L427.32625,681.94698L429.09881,682.85686C432.48721,684.59616 432.45013,684.52269 431.21215,687.0469C430.616,688.26238 429.94652,689.24847 429.72435,689.23821C429.50228,689.22796 428.31972,688.70295 427.09639,688.07151zM760.43199,687.0907C759.5855,686.57838 758.71863,686.10017 758.50548,686.02799C758.01105,685.86047 759.84967,681.8852 760.41324,681.90371C760.6433,681.91125 761.26783,682.16679 761.80087,682.47155C763.11792,683.22443 764.02965,683.18907 764.3014,682.37462C764.42596,682.00142 764.84551,681.28434 765.23382,680.78109C765.92903,679.87983 765.95954,679.87619 767.26297,680.53876C769.63465,681.74437 769.65329,681.79537 768.4864,683.87326C767.34359,685.90809 767.05668,686.05201 765.89492,685.17335C764.48496,684.10692 763.51566,684.45387 762.71086,686.31312L761.97111,688.02216L760.43199,687.0907zM503.84671,682.24398L501.60194,681.08659L502.83449,678.77415C503.51237,677.5023 504.26073,676.46334 504.49765,676.46534C505.10476,676.47047 509.00131,678.74405 508.99035,679.08673C508.97233,679.64992 506.85724,683.19681 506.47916,683.2978C506.26591,683.35478 505.0814,682.88055 503.84671,682.24398zM529.87234,681.1988L528.0629,680.13314L528.99779,678.58821C529.51208,677.73851 529.99966,676.86882 530.08139,676.65557C530.16498,676.43747 530.9205,676.64954 531.80827,677.14023C532.67616,677.62006 533.54006,678.01263 533.72791,678.01263C533.91578,678.01263 534.47248,677.15211 534.96517,676.10036C535.94953,673.99873 535.62636,674.02191 538.58691,675.84049L539.67595,676.5095L538.62707,678.32734C538.05028,679.32714 537.52389,680.21041 537.45762,680.29016C537.39134,680.3699 536.70895,680.06457 535.94124,679.61163C535.17362,679.15868 534.37866,678.7881 534.17492,678.7881C533.97109,678.7881 533.42278,679.57326 532.95651,680.53289C532.49035,681.49253 532.01283,682.27471 531.89544,682.27107C531.77795,682.26744 530.86755,681.78492 529.87234,681.1988zM687.29164,681.1988L685.4821,680.13314L686.41719,678.58821C686.93128,677.73851 687.41906,676.86882 687.50069,676.65557C687.58428,676.43747 688.3398,676.64954 689.22747,677.14023C690.09546,677.62006 690.95936,678.01263 691.14722,678.01263C691.33508,678.01263 691.89189,677.15211 692.38437,676.10036C693.36873,673.99873 693.04566,674.02191 696.00622,675.84049L697.09536,676.5095L696.04647,678.32734C695.46948,679.32714 694.94319,680.21041 694.87692,680.29016C694.81054,680.3699 694.12825,680.06457 693.36054,679.61163C692.59293,679.15868 691.79807,678.7881 691.59412,678.7881C691.39029,678.7881 690.84219,679.57326 690.37592,680.53289C689.90965,681.49253 689.43203,682.27471 689.31464,682.27107C689.19715,682.26744 688.28685,681.78492 687.29164,681.1988z" id="path2177" style="fill:#f83e24"/>
  <path d="M546.86619,187.82139C546.21942,186.33671 544.77098,183.61338 543.64724,181.76952C541.14956,177.67095 540.84837,176.55352 541.4645,173.67227C542.03113,171.02253 543.11604,169.95212 546.82815,168.38036C548.23673,167.78393 549.21799,167.16329 549.15462,166.90889C548.97391,166.18411 545.88322,164.78864 544.96549,165.01747C544.49631,165.13443 543.75342,165.85772 543.31468,166.62477C542.05295,168.83016 541.53505,167.89838 542.3347,164.86197C543.1565,161.74192 544.61602,160.03605 546.46124,160.03893C547.62809,160.04074 551.68419,162.30056 554.12637,164.30947C555.35884,165.32325 555.46723,165.33681 556.78169,164.64167L558.15222,163.91697L557.77788,161.3671C557.36126,158.5296 557.72404,155.66809 558.6768,154.27619C559.24976,153.43918 559.23791,153.29735 558.54175,152.65344C557.86848,152.03069 557.78177,151.67665 557.80304,149.63793C557.81639,148.36747 557.87943,147.24119 557.94317,147.13512C558.1379,146.811 561.50388,148.47513 563.88714,150.07375C567.23852,152.32173 570.87535,155.83728 572.50447,158.40374C574.19098,161.06058 574.64604,163.39653 574.01144,166.13891C573.61996,167.83071 573.54996,167.90106 572.16554,167.99493C571.37399,168.04859 569.20672,167.76608 567.34922,167.36714C565.49171,166.9682 563.82652,166.67801 563.64876,166.72232C563.47111,166.76664 562.5098,167.48918 561.51262,168.328C559.8531,169.72402 559.1798,170.00734 553.55817,171.67504C547.37509,173.50932 544.18462,174.97737 543.56013,176.27539C543.31802,176.77868 543.69605,177.64707 545.31038,180.29605C547.54222,183.95838 548.77828,187.78056 548.30296,189.54968C548.06409,190.43843 547.94233,190.29191 546.86619,187.82139zM571.39819,161.04316C571.48352,160.34739 570.63984,159.34925 568.66959,157.81486C566.49176,156.11888 566.36076,156.2568 566.02605,160.59772C565.9899,161.06591 566.52545,161.33725 567.98147,161.58855C570.34438,161.99641 571.29988,161.84388 571.39819,161.04316zM563.49198,159.69622C564.0737,159.04105 563.99605,157.98954 563.27114,156.70489C562.7329,155.75098 562.37198,155.50748 561.73273,155.66685C559.61199,156.19562 559.0521,158.76968 560.8025,159.94386C561.61067,160.48604 562.89588,160.36772 563.49198,159.69622zM767.32559,129.1645C767.68851,128.82349 767.31788,127.69465 766.72623,127.33913C765.85349,126.81479 766.395,125.96166 767.29495,126.44305C767.71909,126.66996 768.70654,126.95482 769.4894,127.07603L770.91246,127.29649L769.41663,128.12806C767.35927,129.2718 767.04646,129.42687 767.32559,129.1645zM443.172,209.08914C441.0175,208.6704 434.45262,206.12242 434.33738,205.66019C434.20625,205.13441 434.81944,205.15679 436.99591,205.75725C438.75436,206.24233 439.5152,206.22278 441.88648,205.63155C445.21407,204.8019 446.83455,203.59848 449.18508,200.21161C451.04009,197.53853 451.00618,196.79635 449.05105,197.28172C447.14861,197.75407 444.99359,197.00915 443.8603,195.48739C441.27011,192.00942 442.40144,182.63561 445.50473,181.86187C446.69098,181.5661 448.8637,182.93283 449.93252,184.64718C450.48967,185.54079 451.3212,187.2968 451.78027,188.54941L452.61509,190.82687L457.78654,189.53749C460.63082,188.82834 463.00472,188.10176 463.0618,187.92289C463.22345,187.41699 461.65905,185.18917 460.52342,184.30791L459.50011,183.51382L459.69874,181.07811C459.85298,179.18536 460.02687,178.70471 460.47856,178.92203C461.58328,179.45348 463.46207,182.3662 464.40206,185.00475L465.34542,187.65285L469.54047,186.6069C471.84776,186.03163 473.79853,185.45606 473.87555,185.32788C473.95257,185.1997 472.48071,181.67422 470.60467,177.49351C467.78532,171.21066 467.0297,169.81432 466.24797,169.44316C465.20896,168.94987 465.16855,168.657 465.63618,165.01105C465.93713,162.66535 466.68069,162.02605 467.27341,163.60347C467.55135,164.34319 468.11199,164.7216 469.4569,165.07731C470.51537,165.35728 471.33416,165.82744 471.42957,166.21003C471.71271,167.3457 471.29534,170.60692 470.83578,170.84969C470.50121,171.02644 471.10881,172.67621 473.35871,177.70097C475.09097,181.56948 476.64627,185.60195 477.10189,187.40606L477.88154,190.49267L465.80076,193.50475L453.71998,196.51683L453.52232,198.45517C453.26036,201.02249 451.76932,204.38466 449.93462,206.5445C448.03293,208.78326 445.84131,209.6079 443.172,209.08914zM449.71676,190.78001C449.00724,187.93425 445.4256,186.48604 444.8399,188.80814C444.27452,191.05021 446.06,192.44277 448.67915,191.80233C449.6357,191.56844 449.8586,191.34886 449.71676,190.78001zM665.0666,153.32519C663.78622,152.98994 662.56803,152.6132 662.35966,152.48798C661.92266,152.22545 662.82766,147.562 663.34044,147.43415C663.52799,147.38739 664.80263,147.69783 666.17299,148.12404L668.66446,148.89896L668.05503,151.33349C667.71989,152.67246 667.43408,153.80553 667.42007,153.85136C667.40606,153.89723 666.34698,153.66044 665.0666,153.32519zM687.19353,148.27215C684.95953,147.98389 679.21449,146.22571 679.10776,145.79761C678.98963,145.32353 679.59358,145.31855 681.94571,145.77418C686.29595,146.61687 688.85064,145.1257 692.54559,139.58712C695.841,134.64718 695.88066,132.41704 692.72882,129.27121L690.93443,127.48024L690.84126,125.07081C690.79019,123.74561 690.81459,122.55095 690.89565,122.41599C691.10131,122.07379 693.71337,124.79996 694.52245,126.2012C694.88987,126.83749 695.3483,127.99101 695.54111,128.76461L695.89184,130.17116L703.40772,128.29725C711.92714,126.17311 711.88921,126.20489 708.15369,124.32064C704.93912,122.69919 701.90894,122.19888 699.6902,122.92321L697.91865,123.50153L698.26406,122.42119C698.88065,120.4923 699.69008,119.19031 700.78873,118.36003C703.4225,116.36967 705.35876,116.77419 712.23494,120.75142C715.78328,122.80378 718.08981,123.88038 719.09872,123.9552L720.6181,124.0679L721.31104,126.84701L722.00397,129.62613L709.64803,132.70681L697.29219,135.78747L697.51494,136.68086C697.82125,137.90962 696.0877,142.56301 694.57628,144.56862C692.00523,147.98058 690.55852,148.70633 687.19353,148.27215zM417.84232,215.2682C410.28919,215.19455 407.29976,210.17744 409.3511,201.01724C410.24517,197.02483 410.8582,195.46456 411.45758,195.65604C411.72189,195.7405 411.58108,197.09391 411.10324,199.06092C410.45012,201.74934 410.39746,202.80458 410.80462,205.03888C411.28098,207.65298 411.35473,207.7907 412.82165,208.80705C415.10639,210.39011 417.45404,210.53015 422.13654,209.36267C425.75967,208.45934 426.22083,208.25078 428.01772,206.70326C429.09001,205.77969 430.18834,204.47442 430.45824,203.80266C431.20954,201.93333 430.2717,199.04713 427.98889,196.20236L426.15004,193.91088L426.37736,190.98026L426.60467,188.04963L428.3,190.17022C429.861,192.12283 430.10686,192.69266 431.4042,197.36468C433.29901,204.1885 433.38127,206.45172 431.82504,208.93555C431.03431,210.19769 429.96109,211.23974 428.57814,212.08818C425.98472,213.67933 420.53204,215.29442 417.84232,215.2682zM461.28367,203.96465C460.19444,203.70301 459.16412,203.35315 458.99391,203.18719C458.64739,202.84923 459.53298,198.24905 459.9653,198.14127C460.11732,198.10336 461.39277,198.41058 462.7997,198.82397L465.35772,199.57557L464.75509,201.9157C464.42357,203.20277 463.95249,204.29735 463.70816,204.34809C463.46385,204.39883 462.37281,204.22627 461.28367,203.96465zM744.71166,133.77053C737.15853,133.69688 734.16911,128.67977 736.22045,119.51957C737.11452,115.52717 737.72754,113.9669 738.32693,114.15835C738.59135,114.24283 738.45043,115.59624 737.97259,117.56325C737.31947,120.25166 737.26681,121.3069 737.67397,123.5412C738.15023,126.1553 738.22408,126.29302 739.691,127.30938C741.97574,128.89244 744.32339,129.03249 749.00588,127.865C752.62901,126.96165 753.09017,126.75312 754.88707,125.20557C755.95936,124.28203 757.05769,122.97674 757.32759,122.30498C758.07889,120.43566 757.14115,117.54944 754.85824,114.70467L753.01938,112.41319L753.24661,109.48258L753.47392,106.55195L755.16935,108.67254C756.73035,110.62516 756.97621,111.195 758.27355,115.867C760.16836,122.69082 760.25062,124.95404 758.69439,127.43787C757.90366,128.70001 756.83044,129.74206 755.44748,130.5905C752.85407,132.18165 747.40139,133.79675 744.71166,133.77053zM767.60612,124.10555C768.37262,123.08151 769.38357,122.91436 769.77033,123.74766C769.98967,124.22006 769.7439,124.39548 768.4962,124.65732C766.95084,124.98162 766.95055,124.98145 767.60612,124.10555zM605.5462,160.4439C604.92633,160.28344 603.86063,159.48256 603.17798,158.66412C602.49532,157.84569 601.85125,157.19737 601.74678,157.22342C601.64231,157.24946 600.94545,158.1586 600.19813,159.2437C598.87751,161.16114 598.77992,161.22502 596.7268,161.51644C595.56484,161.68135 594.00085,161.75968 593.2511,161.69055C592.01394,161.57642 591.88291,161.45455 591.832,160.37071C591.76458,158.93737 592.96261,154.37308 593.91909,152.41882C594.29697,151.64671 595.17595,150.5192 595.87223,149.91327C596.89222,149.02577 597.087,148.60549 596.87407,147.75177C596.60243,146.66214 596.68291,144.20849 597.0109,143.58125C597.11244,143.38704 598.58297,145.68682 600.27863,148.69186C602.06937,151.86519 603.72475,154.37365 604.22751,154.67576C605.465,155.4193 607.56035,154.78153 609.22251,153.15543C609.98531,152.40919 610.57446,151.65859 610.53182,151.48743C610.48916,151.31629 609.37953,149.37799 608.06593,147.18014C606.75234,144.98228 605.57154,142.70379 605.44184,142.11683C605.14244,140.76199 605.39852,138.13963 605.7912,138.53954C605.95421,138.70555 607.64325,141.34994 609.5448,144.41598C613.52883,150.84022 614.52976,151.76817 616.6863,151.03682C618.57519,150.39619 618.4361,149.79474 615.13276,144.32291C613.61961,141.81658 612.29292,139.40591 612.18442,138.96587C611.85416,137.62646 612.04445,135.05112 612.45391,135.31731C612.66554,135.45484 614.41273,138.12777 616.33658,141.25722C619.60692,146.5769 619.86697,147.133 620.3348,149.80505C620.61001,151.37693 620.77815,153.39308 620.70857,154.28537L620.58197,155.90771L618.39033,156.57555C616.64056,157.10875 615.95023,157.14057 614.96603,156.73336C613.38835,156.08064 613.06138,156.18004 612.00947,157.6321C610.4953,159.72228 607.60922,160.97784 605.5462,160.4439zM599.72845,154.57881C600.0393,154.25301 600.00006,153.72341 599.59507,152.77925C599.27936,152.04339 598.88999,151.3625 598.72964,151.2662C598.56931,151.16986 597.76063,151.72538 596.93257,152.50068C595.32269,154.00791 595.00939,155.50667 596.30176,155.51854C597.55092,155.53001 599.27083,155.05836 599.72845,154.57881zM522.90103,180.59393C522.59087,180.56177 522.39482,179.87769 522.2592,178.35419C522.0295,175.7744 520.03296,169.84371 517.08214,162.97612L515.05811,158.26546L515.65716,155.3775L516.25611,152.48955L518.85429,158.40371C520.28334,161.65653 522.11964,166.51399 522.93496,169.1981C524.36647,173.91065 524.40614,174.1843 524.09096,177.16398C523.75229,180.36628 523.64649,180.6712 522.90103,180.59393zM629.61096,153.98816C629.3008,153.95601 629.10475,153.27193 628.96914,151.74843C628.73943,149.16864 626.74289,143.23795 623.79207,136.37036L621.76803,131.65969L622.36699,128.77174L622.96595,125.88377L625.56423,131.79796C626.99327,135.05074 628.82957,139.90822 629.64489,142.59234C631.0764,147.30488 631.11607,147.57855 630.80089,150.55821C630.46223,153.76052 630.35642,154.06542 629.61096,153.98816zM482.67371,188.02416C480.42813,186.67487 479.6166,184.99142 477.31764,176.91274C475.593,170.85222 475.17279,169.73344 474.33847,168.97998C473.37805,168.11269 473.37091,168.0765 473.69808,165.75923C473.88008,164.47026 474.11745,163.246 474.22555,163.03865C474.33365,162.83133 475.01996,163.37608 475.75063,164.24922C476.95686,165.69065 477.27422,166.51994 479.19929,173.26203C481.23143,180.37955 482.12533,182.49256 483.26456,182.87265C484.09292,183.14903 490.73789,181.36626 491.97462,180.53585C493.23615,179.6888 493.24264,179.20767 492.01161,177.80866C491.05267,176.71874 489.40811,176.54307 488.73534,177.45868C488.48847,177.79456 488.18541,178.00855 488.06173,177.93427C487.66109,177.69351 487.5957,173.78655 487.97419,172.70166C488.74473,170.49332 491.87878,168.95932 495.29358,169.11909C497.10163,169.20368 499.61337,170.7677 499.90547,171.99078C500.14343,172.98732 499.61371,176.11623 499.1215,176.62088C498.56069,177.19593 499.05558,178.38843 499.94856,178.61362C500.76141,178.81864 512.53995,176.07737 512.81531,175.6191C512.89233,175.49091 511.42046,171.96546 509.54443,167.78473C506.72518,161.50189 505.96945,160.10554 505.18773,159.7344C504.14881,159.2411 504.10831,158.94824 504.57594,155.30229C504.87688,152.95657 505.62044,152.31727 506.21315,153.89469C506.49111,154.63441 507.05175,155.01283 508.39665,155.36855C509.45512,155.64849 510.27392,156.11866 510.36932,156.50126C510.65246,157.63693 510.23508,160.89814 509.77554,161.14092C509.44096,161.31767 510.04855,162.96745 512.29846,167.99219C514.03071,171.8607 515.58603,175.89317 516.04164,177.6973L516.8213,180.7839L509.17006,182.69157C501.05137,184.71579 500.0361,184.79739 497.92448,183.59525C496.65914,182.87492 496.62181,182.87814 495.78278,183.77851C493.76601,185.94297 492.60706,186.57457 488.44289,187.77883L484.27256,188.98486L482.67371,188.02416zM652.05067,146.54008C649.69955,146.23593 648.96895,145.85074 647.51673,144.14972C646.57985,143.05241 645.90307,141.82207 645.62697,140.71427C644.85408,137.6145 645.80619,131.7913 647.02227,132.17983C647.37516,132.29255 647.42635,132.69757 647.20564,133.62798C647.03724,134.33839 647.0282,135.82401 647.18561,136.9294C647.44479,138.74832 647.60254,139.0277 648.84744,139.87185C649.68991,140.44312 650.83667,140.79377 651.80675,140.77673C652.67792,140.76145 657.89871,139.6292 663.40864,138.26065C671.74477,136.19011 673.40473,135.68446 673.29607,135.24877C673.22428,134.96078 672.41332,133.88233 671.49401,132.85218C669.84404,131.00314 669.8245,130.95539 669.97161,129.115C670.21791,126.0333 670.34259,125.97015 672.08914,128.04216C673.57109,129.80024 673.80403,130.34454 675.24503,135.41843L676.8008,140.89655L665.04208,143.79805C656.99316,145.78419 652.89457,146.64926 652.05067,146.54008zM764.56226,117.69862C762.37264,116.38302 761.54161,114.64736 759.25645,106.61751C757.53181,100.55698 757.1117,99.438182 756.27729,98.684762C755.31687,97.817452 755.30972,97.781262 755.637,95.463982C755.81889,94.175012 756.05626,92.950732 756.16437,92.743422C756.27247,92.536072 756.95878,93.080822 757.68945,93.953962C758.89578,95.395402 759.21303,96.224712 761.13811,102.9668C763.17035,110.08431 764.06415,112.1973 765.20338,112.57741C765.48665,112.67193 769.40341,111.83325 773.90713,110.71368L782.09595,108.67808L781.33444,106.284C780.35267,103.19715 779.8919,102.93044 778.6621,104.73707C776.9333,107.27698 774.24921,107.90925 772.02772,106.29985C770.86032,105.45417 770.70709,105.15157 770.34731,102.98112C769.84878,99.973322 770.94021,94.490082 772.2871,93.235992C773.08191,92.495842 773.29711,92.442392 774.34681,92.724322C775.8195,93.119842 778.37073,95.404422 780.16076,97.930572C781.36279,99.626962 781.77446,100.7439 783.44829,106.84952L785.36177,113.82924L775.73615,116.22917L766.11063,118.62909L764.56226,117.69862zM776.26647,100.88509L777.01951,99.802512L775.96662,98.772512C774.27175,97.114562 771.89382,98.437672 772.46325,100.72175C772.95591,102.69742 774.94633,102.7829 776.26647,100.88509zM416.2806,189.10654C415.00021,188.77131 413.78212,188.39456 413.57366,188.26935C413.1545,188.01749 414.03127,183.34596 414.52052,183.22396C414.6894,183.18185 415.96149,183.40468 417.34726,183.71912L419.86695,184.29087L419.27896,186.91619C418.95567,188.36011 418.6725,189.58077 418.64981,189.6288C418.62712,189.67681 417.56097,189.44179 416.2806,189.10654zM743.14995,107.60886C741.86946,107.27363 740.65147,106.89687 740.44301,106.77168C740.02385,106.51984 740.90051,101.84828 741.38987,101.72629C741.55874,101.68418 742.83084,101.907 744.21661,102.22146L746.73619,102.7932L746.14831,105.41851C745.82502,106.86243 745.54185,108.08312 745.51916,108.13112C745.49647,108.17912 744.43032,107.94411 743.14995,107.60886zM685.88549,117.53084L683.46132,116.95768L684.05026,114.24474L684.63929,111.53178L687.00947,112.17828C688.31296,112.53385 689.54558,112.91017 689.74846,113.01457C690.21201,113.25304 689.23975,117.91717 688.70416,118.02474C688.48721,118.06833 687.2188,117.84606 685.88549,117.53084zM489.03555,163.82717L486.61138,163.25401L487.19721,160.55579L487.78292,157.85754L489.71374,158.30941C493.40453,159.1732 493.35107,159.11116 492.76334,161.84678C492.48029,163.16406 492.07119,164.2775 491.85423,164.32106C491.63718,164.36467 490.36886,164.14239 489.03555,163.82717zM599.86445,136.52635C599.42977,136.1486 599.02042,135.62428 598.95486,135.3612C598.8132,134.79308 599.4039,134.5742 599.86498,135.02391C600.92737,136.06004 602.56792,133.92384 602.12109,132.08616L601.89072,131.13844L602.5952,131.95352C603.35902,132.83733 604.56798,132.97153 605.01799,132.22247C605.17278,131.96491 605.29222,131.15777 605.28335,130.42884C605.2678,129.15786 605.28688,129.17605 605.74886,130.87244C606.35247,133.08879 605.66142,134.55679 603.99226,134.60378C603.16214,134.62713 602.76427,134.90305 602.25988,135.80518C601.45462,137.24537 600.88813,137.41592 599.86445,136.52635zM769.8314,89.032702L767.38505,88.455502L768.01853,85.925682C768.36689,84.534302 768.83939,83.350812 769.06865,83.295722C769.65613,83.154502 773.96638,84.411842 774.03838,84.745412C774.15652,85.293592 772.96799,89.227942 772.62731,89.416502C772.43508,89.522862 771.17694,89.350162 769.8314,89.032702zM600.06977,127.83871C599.82595,127.44247 598.69159,126.5475 597.54904,125.84987C595.63017,124.6782 594.7283,123.57837 595.5236,123.38005C596.61285,123.10849 601.15848,127.48497 600.65599,128.32134C600.57737,128.45212 600.31359,128.23494 600.06977,127.83871z" id="path2224" style="fill:#f83e24"/>
  <path d="M456.11004,660.30133C448.32943,654.89502 443.44447,649.26489 440.01379,640.43954C439.12574,638.06037 438.76883,637.87561 434.1624,637.41051C431.46427,637.13809 419.5769,636.84422 407.74603,636.75747C393.81809,636.65534 386.33363,636.3189 386.51418,635.80304C392.31793,627.08087 396.55911,616.43686 401.06583,606.83594C405.95057,596.39092 415.37627,584.72161 422.12112,580.76886C424.25095,579.5207 427.79092,578.51191 432.11783,577.9201C440.87285,576.72262 442.97934,575.64122 443.66378,571.9928C444.74366,566.23655 442.90383,558.43795 438.17078,548.70934C435.31711,542.84372 432.13203,540.06938 429.72847,541.35574C427.35538,542.62578 427.26498,542.50217 427.26498,537.98718C427.26498,531.66176 430.44982,527.52755 435.17988,527.71288C437.98061,527.82262 438.23025,527.639 439.06769,524.85311C439.94765,521.92579 441.38808,520.14487 447.83844,514.00919C451.1507,510.85851 454.35252,505.17741 454.35252,502.45103C454.35252,501.61677 454.92748,500.71356 455.63021,500.4439C456.33295,500.17423 456.71277,499.44507 456.47426,498.82352C456.23576,498.20198 456.51376,497.30078 457.09205,496.82085C458.74252,495.45107 458.82433,497.45201 458.24678,525.06283C457.31377,569.6669 456.33763,636.39311 456.53021,642.40344C456.63248,645.59547 457.09097,648.90747 457.54907,649.76343C458.70144,651.91667 462.14499,652.63976 464.62303,651.24887C468.13709,649.27649 468.52919,645.82608 468.92925,613.35491C469.13344,596.78146 469.74135,562.24844 470.28015,536.61487C470.81895,510.9813 471.30966,479.07378 471.37059,465.70927C471.4731,443.22915 471.36815,441.20142 469.96855,438.62174C469.13648,437.08811 467.79206,435.36484 466.98096,434.79228C464.87669,433.30685 465.15496,431.74908 467.80407,430.18421C469.59321,429.12734 470.20573,428.06952 470.57079,425.40617C471.74008,416.87524 476.38385,407.31144 482.22262,401.4093C488.17661,396.61421 494.93917,393.26926 501.15899,388.93705L504.54573,386.81575L504.12196,448.76906C503.88889,482.84338 503.56996,511.97717 503.41323,513.5108C503.14605,516.12515 501.9677,564.29349 501.82199,578.55666C501.7676,583.88049 502.02822,585.34678 503.27339,586.72275C505.18548,588.83569 505.60175,588.8203 508.05579,586.54597L510.05617,584.69209L510.10217,553.38515C510.12748,536.16634 510.28336,521.85348 510.44858,521.57881C510.73432,521.10375 511.00802,509.05348 512.20615,444.19858C512.49352,428.64318 512.82906,415.01974 512.95181,413.92429C513.07454,412.82883 513.20483,406.46525 513.24136,399.78299C513.28011,392.6885 513.6226,387.63344 514.06449,387.63344C521.33966,391.25202 528.04341,395.6571 534.02672,401.18216C540.99698,408.11584 545.15588,415.98547 546.33928,424.48045C546.81865,427.92172 547.0606,428.26585 549.00852,428.27693C550.18667,428.28364 551.65099,428.60598 552.26257,428.99322C553.59737,429.83842 552.86055,432.2482 551.26732,432.2482C548.59114,432.2482 547.63069,439.19354 547.1808,461.79928C546.9418,473.80884 546.39599,497.07902 545.96788,513.5108C545.53979,529.94257 544.8022,561.67084 544.32882,584.01805C543.85543,606.36527 543.39806,627.51744 543.3124,631.02289L543.15669,637.39643L538.78839,637.79477C536.38582,638.01386 523.51476,637.92329 510.18604,637.5935C488.33524,637.05284 485.81031,637.12207 484.51149,638.29749C480.92703,646.27802 475.30755,655.23199 466.90744,658.87071C464.83466,659.66232 462.73125,660.801 462.2332,661.40111C460.83745,663.08288 458.73787,662.70577 456.11004,660.30133zM426.51221,612.18021C430.77079,609.78676 431.85116,606.88819 429.93648,602.99312C428.72597,600.53057 427.8886,599.87386 425.28764,599.34726C417.05461,597.68038 412.81485,606.58129 419.21292,612.10048C421.78873,614.32246 422.68321,614.33223 426.51221,612.18021zM602.9356,655.53577C600.91643,655.0313 600.17477,653.88039 600.15938,651.22762C600.14299,648.40275 602.36124,646.03924 605.57163,645.46095C607.68623,645.08005 608.59247,645.37094 610.15307,646.93154C612.45086,649.22934 612.32374,651.34209 609.72098,654.1126C607.90315,656.04759 606.31633,656.38041 602.9356,655.53577zM673.24202,654.76998C663.28372,652.88352 655.03198,647.81892 647.60344,641.23493C642.80364,636.93657 642.72678,636.9249 620.47244,637.11446L599.76805,637.29082L599.20391,633.75851C598.89363,631.81573 598.26946,625.38629 597.81684,619.47085C597.36423,613.55541 596.53824,603.8756 595.9813,597.96017C595.42436,592.04473 594.96868,577.61784 594.96868,565.90042L594.96868,544.59601L596.96226,542.79635C598.05873,541.80653 601.10608,539.38692 603.73414,537.41945C607.79373,534.38028 621.21731,523.52231 622.45456,522.27701C622.67365,522.05648 624.46621,520.57905 626.43802,518.9938C630.49268,515.73405 636.79502,509.73256 636.79502,509.1312C636.79502,508.91235 602.03721,535.77301 601.34222,535.88423C600.90404,535.95435 599.51449,536.87928 598.25433,537.93964C596.99417,539 595.61122,539.75025 595.18111,539.60688C594.51922,539.38625 594.4049,465.4649 595.02677,439.81677C595.11177,436.31133 595.24758,426.33906 595.32858,417.65618C595.45542,404.05913 595.60015,401.00193 595.60015,399.57202C595.60015,397.92889 597.88034,400.40472 599.73958,402.61429C600.82994,403.91011 603.07063,405.60261 604.7189,406.3754C606.36717,407.14819 609.57637,410.15027 612.34376,410.14146C615.00797,410.13298 620.62705,409.2767 625.03774,406.89623L631.83884,398.87816C633.11272,397.60045 634.76345,394.00698 635.20163,394.00698C635.71202,394.00698 636.01113,401.6657 636.03396,415.31849C636.05355,427.03982 636.21361,440.39438 636.38964,444.99527C636.56566,449.59617 636.94931,464.38477 637.24221,477.85882C637.70063,498.94803 637.94225,502.35711 638.97851,502.35711C640.00262,502.35711 639.87124,476.26544 639.65189,474.07454C639.43254,471.88363 639.14814,444.63676 639.01991,413.52593C638.89167,382.4151 638.67406,353.10679 638.53632,348.39635L638.28588,339.83191L636.25472,339.83191C635.13757,339.83191 632.91994,339.09759 631.32664,338.20009C627.97882,336.31427 622.54933,329.35122 621.9017,326.11309C621.30058,323.10745 620.44678,323.32414 618.07275,327.08483C615.86621,330.58022 614.48764,331.17484 614.48764,328.6312C614.48764,327.72898 614.80694,327.18813 615.19719,327.42932C616.08247,327.97645 618.69782,324.11275 618.09854,323.1431C617.85722,322.75262 618.14321,321.94969 618.73408,321.35883C619.32496,320.76794 620.04925,319.75313 620.34362,319.10369C620.64873,318.43056 620.73585,318.69358 620.54625,319.71543C620.01777,322.56371 621.51705,321.79536 622.87814,318.52039C623.56104,316.87722 625.97356,313.65062 628.23929,311.35016C630.50501,309.04972 631.88758,307.16753 631.31167,307.16753C630.68435,307.16753 631.17436,306.07268 632.53392,304.43663C635.18753,301.24334 636.90255,300.58818 634.45161,303.70404C633.5373,304.86639 633.00566,306.03156 633.27016,306.2933C633.85775,306.87475 637.58223,302.35731 637.58775,301.05647C637.58993,300.54356 638.66725,299.88768 639.98179,299.59896C641.29633,299.31023 642.37186,298.57598 642.37186,297.96727C642.37186,297.27351 641.85162,297.02789 640.97765,297.30904C639.84098,297.67469 639.79716,297.6062 640.74044,296.93826C641.37679,296.48765 642.21257,296.31374 642.59773,296.55179C642.9829,296.78983 644.25481,296.0967 645.4242,295.01148C648.06777,292.55822 662.95618,283.26816 668.10326,280.86023C670.58734,279.69812 671.84256,278.64072 671.68837,277.84011C671.55789,277.16256 671.09262,276.65505 670.65444,276.71232C658.72861,278.27108 655.45093,279.24327 643.96525,284.62848C629.1598,291.57023 628.86933,291.83067 633.2099,294.27149C634.52445,295.01069 635.71948,295.88438 635.86554,296.21302C636.01161,296.54165 636.65314,296.81053 637.29117,296.81053C638.24345,296.81053 638.26723,297.00999 637.42395,297.92419C636.3388,299.10058 636.35682,299.10583 629.90021,295.73315C628.51806,295.01117 626.99522,294.42046 626.51611,294.42046C625.73936,294.42046 618.72975,299.0839 616.35824,301.17841C610.63301,306.23492 603.90972,313.38907 599.9454,318.64305C597.26867,322.19058 594.16995,325.81013 593.05936,326.68649C591.94877,327.56285 589.71146,329.62429 588.08753,331.26747C579.15796,339.56507 568.48681,345.55797 556.58658,348.32187C556.40318,348.13846 556.59885,332.79865 557.02139,314.23338C557.76368,281.61984 557.71944,270.05108 556.84914,269.18076C556.00056,268.33219 554.73573,269.88334 554.73573,271.77257C554.73573,272.8481 554.39949,274.35061 553.98853,275.11148C552.64651,277.59619 549.15888,287.64906 549.15888,289.03266C549.15888,291.66711 546.50333,295.9505 544.4455,296.63533C541.62568,297.57376 535.4295,297.84216 530.96085,297.21947C521.83639,295.94799 521.6,291.77578 529.52391,271.85934L532.3191,264.83372L530.65227,263.49407C529.73551,262.75727 527.7134,260.81001 526.15869,259.16683C523.22406,256.0652 522.20243,255.6946 519.86963,256.88541C519.10876,257.27382 419.05908,311.59471 417.87358,312.85075C415.0409,314.91724 412.85059,317.076 410.95796,320.11378C406.24386,325.88457 402.75937,334.09868 396.31896,338.13701C392.28896,340.36856 388.18326,336.33297 389.33641,331.27371C393.58722,314.03917 398.4016,296.94045 402.60904,279.68165C407.25975,259.99783 407.59516,259.07248 410.62135,257.57607C437.1744,250.13808 463.89604,242.87459 490.60201,235.81005C508.94789,230.97063 507.82671,231.4618 509.57499,227.49832C513.09225,219.52439 515.34325,218.04187 528.84323,214.80813C531.03414,214.28333 534.08148,213.52548 535.61512,213.12404C545.98547,210.40945 545.88198,210.39278 546.48621,214.87639C546.71919,216.60526 546.21154,218.96915 545.0569,221.53205C544.07206,223.71804 543.1416,226.34463 542.98922,227.36889C542.71636,229.20295 546.40261,241.29142 547.8268,243.23299C548.7631,244.50943 559.19573,244.59472 559.97594,243.3323C560.36026,242.71046 559.64618,242.53894 557.64546,242.77251C556.05894,242.95773 554.66361,242.81747 554.54473,242.46082C554.42585,242.10418 553.12688,241.66029 551.65813,241.47441C550.18939,241.28853 548.91089,241.02558 548.81702,240.89009C548.00892,239.72356 545.39054,228.64177 545.84636,228.31731C546.17137,228.08595 546.89996,226.28336 547.46547,224.31155C548.03098,222.33973 548.88352,219.37125 549.36003,217.71491C550.00479,215.47375 549.98798,214.46496 549.2943,213.77129C546.57948,211.05647 549.79166,206.65588 554.80852,206.21698C556.7403,206.04798 559.55549,205.57844 561.06447,205.17357C562.57346,204.7687 563.952,204.58133 564.12788,204.75722C564.87246,205.5018 563.28098,210.05778 562.39507,209.71781C561.82875,209.5005 561.37299,210.1869 561.27181,211.40953C561.17815,212.54111 560.78798,213.66628 560.40476,213.90992C560.02152,214.15356 559.73268,215.42843 559.76288,216.74297C559.79308,218.05751 559.36251,220.48059 558.80607,222.12759C557.46966,226.08314 558.21326,227.88433 559.70768,224.31155C561.70337,219.54038 562.13731,218.37609 562.39449,217.10272C562.53152,216.42422 563.84911,212.30133 565.32247,207.94076C567.64636,201.06288 568.25722,199.97711 569.93295,199.7458C570.99536,199.59915 572.20519,199.15101 572.62147,198.74993C573.03774,198.34886 574.59976,198.02071 576.09265,198.02071C578.24043,198.02071 578.70603,198.28373 578.32338,199.28091C578.05741,199.97401 577.8398,200.89145 577.8398,201.31965C575.57539,202.53079 576.27824,205.70204 575.05138,207.86554C574.39411,208.52281 573.85634,209.91077 573.85634,210.94988C573.85634,211.989 573.56326,213.17977 573.20505,213.59604C571.02144,216.13361 570.27852,227.42594 572.1707,229.31812C572.76838,229.9158 572.88512,229.01141 572.56773,226.24228C572.18674,222.91828 572.75136,220.43572 576.26829,209.97109C578.55087,203.17929 580.72704,197.03252 581.10422,196.3116C581.86426,194.8589 589.13048,192.81693 590.99448,193.53221C592.52979,194.12137 592.52397,196.12495 590.98522,196.71543C588.71565,199.92549 590.08078,204.26036 584.99289,205.19094C581.9606,205.19094 580.83014,207.24212 581.87224,210.85325C582.72713,213.8156 584.74914,216.87108 585.41439,216.20583C585.64585,215.97438 585.29325,214.74575 584.63085,213.47556C582.50174,209.39294 583.00476,208.61058 588.53375,207.40528C590.32024,207.01583 593.39522,206.34369 595.36703,205.91162C597.33884,205.47956 600.7971,204.81812 603.05204,204.44175C605.30698,204.06539 607.87157,203.52904 608.75114,203.24988C610.53973,202.6822 610.5049,202.5296 613.64899,224.70989C616.59507,245.49325 616.63654,244.10144 612.94867,248.21231C609.03846,254.12264 603.93257,258.8024 598.89769,263.74719C597.17491,265.28048 595.22761,266.53527 594.57034,266.53561C593.8913,266.53596 593.33315,267.31023 593.2777,268.32879C592.46211,283.30757 591.77331,313.71863 592.0977,320.42689C592.26889,323.96687 594.42642,323.09944 598.57243,317.82373C606.54122,307.68364 619.68374,295.82975 625.78273,293.28143C627.25638,292.6657 629.08987,291.46824 629.85714,290.62042C630.62441,289.77259 634.11261,287.7366 637.60871,286.09599C641.1048,284.45537 643.96525,282.75426 643.96525,282.31575C643.96525,281.6962 635.07204,271.72605 632.73777,269.72866C631.33692,268.52998 626.18297,260.4076 623.81118,255.6608C619.96121,247.9556 617.94254,241.52674 617.34466,235.06689C616.21304,222.83996 612.66694,204.18491 611.09771,202.20335C610.66396,201.65562 609.44987,201.20748 608.39972,201.20748C606.72094,201.20748 606.55361,200.94289 607.01412,199.01657C608.30172,193.63049 609.12681,192.94802 614.59022,192.75005C658.35978,183.80313 701.92516,173.05055 745.5435,162.8832C780.82213,154.9516 778.21552,155.74298 778.16285,152.97988C778.13808,151.68058 777.84225,149.12088 777.50545,147.29167C776.75033,143.19045 777.86498,142.38054 784.69556,142.06731L789.34947,141.8539L790.27006,146.48634C790.77637,149.03418 791.41801,151.34616 791.69591,151.62406C791.97382,151.90196 793.80813,151.69955 795.77214,151.17426C802.12453,149.47526 803.02354,149.75617 803.55183,153.60512C803.80743,155.46739 804.2605,158.51473 804.55864,160.377C805.08087,163.63899 805.02405,163.76294 803.00716,163.76294C792.40779,166.87491 780.99678,169.20167 769.93007,171.38558C768.89983,170.74885 764.26673,174.0297 763.53988,175.91067C760.6557,183.37453 759.94513,184.52902 757.96268,184.97231C756.82847,185.22592 754.46645,185.81609 752.71373,186.28381C735.57524,190.75932 718.17718,194.1379 700.92874,198.17471C696.98511,199.09517 693.27633,199.97665 692.687,200.13355C692.09768,200.29045 691.42847,201.13404 691.19987,202.00819C690.97128,202.88234 690.46755,203.59755 690.08047,203.59755C689.6934,203.59755 689.3767,204.59331 689.3767,205.81036C689.3767,209.14579 687.42779,211.33416 684.01342,211.83265C673.34372,213.81706 662.97463,217.19003 652.33052,219.26629C648.82663,219.89004 648.52669,220.2617 648.95433,223.44988C650.25337,233.13501 659.96788,250.21296 669.82634,260.14255C673.10312,263.44298 673.27216,263.81096 672.10421,265.10154C671.41034,265.86824 670.17791,266.70653 669.36546,266.96439C668.553,267.22225 666.8477,268.39657 665.57589,269.57398C664.30408,270.75139 662.68577,272.177 661.97964,272.74201C660.64786,273.80762 660.15168,275.73015 661.409,274.95309C661.80126,274.71066 662.3152,275.01526 662.5511,275.62998C662.89,276.51316 663.67603,276.59125 666.29752,276.00225C668.12217,275.59228 670.74519,275.4676 672.12648,275.72518C673.6531,276.00986 675.73132,275.70175 677.42632,274.93945L680.21474,273.68537L676.23128,274.18736C673.51732,274.52936 672.50172,274.42918 673.04451,273.873C674.19936,272.68966 682.2989,272.24052 681.32331,273.41392C680.79866,274.04495 681.30846,274.42436 683.01818,274.67529C685.50377,275.04011 687.02412,274.17671 685.19903,273.43681C684.43444,273.12684 684.4713,272.84112 685.3552,272.22629C685.99155,271.78367 686.72907,271.55555 686.99413,271.71937C687.98769,272.33343 695.57366,273.09063 701.80228,273.19747C705.60902,273.26277 708.741,273.71343 709.44416,274.29706C710.09948,274.84099 710.82182,275.09984 711.04937,274.8723C711.27692,274.64475 712.46898,274.84101 713.69839,275.30843C715.39943,275.95516 716.1068,275.91289 716.65796,275.13154C717.23116,274.31896 717.46651,274.31252 717.78631,275.10067C718.02268,275.68319 719.63138,276.09654 721.66211,276.09654C723.57154,276.09654 725.35538,276.45505 725.6262,276.89323C725.89701,277.33141 726.6525,277.68993 727.30508,277.68993C727.95766,277.68993 729.97566,278.40694 731.78952,279.28331C733.60337,280.15967 735.73713,280.87669 736.53118,280.87669C737.32524,280.87669 737.97492,281.2352 737.97492,281.67338C737.97492,282.11156 738.55351,282.47007 739.26066,282.47007C740.6814,282.47007 746.98208,285.70689 747.40244,286.65271C747.54851,286.98134 748.21019,287.25023 748.87284,287.25023C750.12391,287.25023 754.90402,290.30661 755.36936,291.40408C755.51543,291.74855 756.11063,292.03038 756.69204,292.03038C757.64982,292.03038 762.28943,295.41786 768.64757,300.75934C772.0771,303.6405 781.74022,313.46113 784.78618,317.16103C800.9107,336.74731 810.61432,364.85082 810.52394,391.70245C810.46902,408.02364 809.72344,412.70131 804.37881,430.25647C801.37675,440.11717 790.81651,459.12538 783.99321,466.95016C772.7347,479.86112 761.99758,489.11971 751.33635,495.1101C748.82607,496.52059 746.60179,497.95037 746.3935,498.28739C746.0398,498.85969 748.32351,508.58456 752.30706,523.46945C754.17031,530.43165 758.57843,543.24852 761.4863,550.15864C762.50045,552.56863 764.60369,557.59715 766.16015,561.33313C772.03792,575.44158 773.37053,577.24617 777.91121,577.24617C780.25178,577.24617 781.24052,576.78655 782.35332,575.18124C784.39293,573.09749 785.65682,570.49076 787.45457,568.24862C787.93935,568.73339 789.15573,574.09314 790.15764,580.15916C792.71983,595.67199 794.71205,603.25968 801.77906,624.42116C803.93214,630.86837 805.69374,636.47657 805.69374,636.88383C805.69374,638.11848 803.37615,638.6019 802.41213,637.56832C801.74436,636.85237 797.09853,636.65938 784.59945,636.82844L767.69017,637.05715L766.58234,639.21852C765.97303,640.40727 764.57631,642.36579 763.4785,643.57079C761.19456,646.07777 758.33676,646.58567 758.99574,644.36748C760.43583,639.52011 760.41307,638.71751 758.81123,637.86024C757.78873,637.31301 750.45957,636.99808 738.74652,636.99808L720.29275,636.99808L716.87259,640.78237C705.2214,652.10935 689.16901,657.63784 673.24202,654.76998zM683.40151,644.81741C691.54712,642.04611 700.6346,634.53524 703.38529,628.30066C704.17465,626.51153 705.9979,621.96667 706.58222,619.24353C709.69908,604.71811 705.96222,587.50707 697.27766,576.38902C693.68963,571.79559 693.42896,571.53628 690.17339,569.32186C688.63976,568.27868 686.57566,566.70181 685.58651,565.81771L683.78805,564.21025C687.51421,560.96773 691.34419,558.11757 694.09842,553.94292C698.77496,545.95451 698.31504,546.10234 703.19119,551.02017C707.73574,555.60354 714.21555,564.46311 716.13136,568.7127C716.76569,570.11975 717.61695,571.80875 718.02305,572.46602C718.42915,573.12329 719.38907,575.18473 720.15622,577.047C721.52408,580.36751 721.62505,580.43294 725.38117,580.43294C727.83966,580.43294 729.21131,580.08885 729.21131,579.47211C729.21131,578.94366 727.98237,574.73115 726.48033,570.11098C722.73262,558.58331 720.4477,549.29619 720.4477,545.59124C720.4477,540.25913 722.08934,533.28706 724.44242,528.62563C726.49873,524.55212 732.70681,517.6684 737.09811,514.59262C739.71718,512.75815 742.75507,507.47947 742.75507,504.76301C742.75507,501.78956 741.75796,501.72322 736.53047,504.34884C734.34947,505.44429 731.98969,506.34057 731.28651,506.34057C730.58333,506.34057 730.008,506.69908 730.008,507.13726C730.008,507.57544 729.13288,507.93395 728.06329,507.93395C726.9937,507.93395 725.89701,508.29246 725.6262,508.73064C725.35538,509.16883 723.92134,509.52734 722.43943,509.52734C720.95752,509.52734 719.54527,509.85057 719.3011,510.24563C719.05694,510.64071 716.61583,511.22024 713.87641,511.5335C711.137,511.84675 708.17864,512.24453 707.30227,512.41744C704.00203,513.0686 687.99434,514.07446 683.39169,513.91988C677.15655,513.71048 668.71186,512.24002 662.5382,510.2887C659.827,509.43177 657.04367,508.73064 656.35303,508.73064C655.66239,508.73064 654.47479,508.41396 653.71392,508.0269C651.71032,507.29743 644.86342,503.16368 644.26611,505.97548C635.08578,512.96277 627.32471,526.35714 621.19779,536.81215C615.83149,545.02928 614.00554,554.92851 612.11498,564.4991C611.14792,570.74281 611.07626,579.64204 611.98154,581.06918C612.51045,581.90299 619.64426,582.02115 648.73849,581.67806C668.59386,581.4439 686.55897,581.02419 688.66094,580.74535C693.03245,580.16545 693.83149,580.68708 696.458,585.83547C700.72349,594.19653 701.80248,609.48565 698.88795,620.26755C697.99959,623.5539 697.06765,627.04939 696.81697,628.03529C696.56628,629.0212 692.01437,634.74937 691.50247,635.40595C690.773,636.34158 688.50439,636.61345 681.01143,636.66319C652.55582,636.85206 650.31844,637.09154 652.89923,639.67234C658.55396,645.32707 674.16412,647.96017 683.40151,644.81741zM685.06562,528.7261C684.14702,527.71106 683.77752,526.21169 683.94628,524.18409C684.43484,518.31414 691.67744,516.75248 694.069,522.0014C695.41818,524.96253 695.1355,527.0457 693.16099,528.69292C690.81745,530.64797 686.81972,530.66436 685.06562,528.7261zM759.41576,579.32206C760.1316,578.45953 759.87018,577.1683 758.24634,573.54604C752.80658,561.41168 751.32774,558.01249 748.52065,551.19098C745.56785,544.01539 745.46206,543.87864 743.59018,544.81744C742.53806,545.3451 740.67678,547.56939 739.45397,549.76029C736.47775,555.09283 736.3796,562.36277 739.17017,570.78195C742.38481,580.48057 742.32622,580.43294 751.04116,580.43294C756.44286,580.43294 758.74753,580.12723 759.41576,579.32206zM602.73588,530.6587C602.51054,529.47987 603.10814,525.3538 603.59654,505.36505C604.19167,481.00839 604.28112,410.62242 603.71766,410.05896C603.50662,409.84792 603.18035,409.82884 602.99263,410.01657C602.34367,410.66554 601.80006,431.24233 601.17404,478.85469C600.51046,529.32282 600.51206,530.35698 601.25629,532.29642C601.99119,534.21154 603.16639,532.91075 602.73588,530.6587zM608.27358,514.75233C608.26124,507.06373 607.99155,496.07582 608.3886,485.95119C608.67913,478.54266 608.93109,458.89125 608.9485,442.28137C608.97827,413.88837 608.65568,409.13367 606.82382,410.96553C606.53774,411.25162 606.13176,437.49158 605.92165,469.27657C605.61945,514.99178 605.74909,527.31985 606.54204,528.2753C607.09338,528.93962 607.71356,529.31405 607.92023,529.10738C608.12691,528.90071 608.28592,522.44094 608.27358,514.75233zM613.32194,516.28329C613.85856,502.14964 613.75926,419.60243 613.20057,415.39082C612.9192,413.26968 612.43055,411.5342 612.11468,411.5342C611.79882,411.5342 611.3295,415.02969 611.07174,419.30195C610.42321,430.05126 610.3419,522.5179 610.97952,524.17949C612.17661,527.29908 613.01041,524.4884 613.32194,516.28329zM616.36513,521.58068C617.77978,521.02431 617.83931,519.3332 617.73045,482.79793C617.63879,452.03871 617.40877,432.63502 616.89276,412.13172C616.88448,411.80309 616.51438,411.5342 616.07031,411.5342C615.53252,411.5342 615.2738,429.55594 615.29552,465.50279C615.31745,501.76501 615.05958,519.56091 614.50955,519.74425C613.57692,520.05513 615.5516,521.90064 616.36513,521.58068zM626.43802,512.22173C626.43802,511.56445 626.46478,486.2072 626.31015,458.7949C626.1565,431.55512 625.76391,409.00114 625.43771,408.67495C623.62582,406.86305 623.54254,409.64343 623.82488,462.5225C623.87752,472.38157 623.91777,480.98584 623.91435,481.64311C623.85286,493.42111 624.25201,512.31887 624.58034,513.1745C625.10815,514.54995 626.43802,513.86788 626.43802,512.22173zM630.38668,509.92568C630.36752,509.4875 629.65918,480.30865 629.70702,475.26957C629.96472,448.12982 630.51253,406.16036 628.73432,406.60316C626.98029,407.03994 627.67987,506.14209 628.54207,509.36074C629.01272,511.11774 630.4581,511.56042 630.38668,509.92568zM704.9785,507.89775C718.82534,505.45114 723.36581,504.27794 730.80469,501.22459C733.65287,500.05553 736.70022,498.80453 737.57658,498.44458C738.45294,498.08464 740.13168,497.33603 741.30712,496.781C742.48256,496.22596 744.05296,496.00542 744.79691,496.2909C748.9686,497.89173 771.87457,479.84747 782.65786,466.46579C789.8531,457.53675 799.79603,440.21412 798.96658,438.05261C798.75444,437.49978 799.0161,437.13279 799.54806,437.23708C800.11766,437.34875 800.50425,436.55052 800.48847,435.29531C800.47374,434.12306 800.71681,433.32161 801.02863,433.51433C801.77781,433.97735 802.74118,430.8816 802.14707,429.9203C801.89255,429.50848 802.0731,428.93123 802.5483,428.63755C803.02351,428.34386 803.23698,427.64667 803.02268,427.08824C802.8084,426.52981 803.05485,425.22165 803.57035,424.18123C804.08585,423.1408 804.63196,421.21401 804.78392,419.89947C804.93588,418.58493 805.44151,417.27221 805.90754,416.98232C806.37358,416.69243 806.85268,414.72061 806.97222,412.60051C807.09177,410.48041 807.48041,405.51918 807.83588,401.57555C809.07865,387.78787 806.78601,368.25562 802.55236,356.56244C798.47783,345.30876 796.12381,340.15938 791.44415,332.26333C785.08022,321.52541 773.40523,307.93184 765.37059,301.90507C763.67967,300.6367 761.30009,298.72841 760.08266,297.66442C758.02226,295.86371 756.20326,294.72036 747.93357,290.02797L744.74681,288.21974L731.20304,294.89155C723.75397,298.56104 717.30082,301.68899 716.86272,301.84254C716.42461,301.99609 718.43798,305.67698 721.33686,310.0223C728.72728,321.10023 734.43844,333.27697 732.9445,334.7709C732.2772,335.4382 730.008,333.53432 730.008,332.30714C730.008,331.22318 723.71284,318.595 721.02455,314.28619C714.39542,303.66099 712.53462,302.26007 707.22198,303.89482C701.98316,305.50683 695.56534,306.33339 685.39324,306.70617C679.26226,306.93086 675.15171,306.80758 675.83293,306.41946C676.49021,306.04498 681.86788,305.54711 687.78332,305.31309C702.10954,304.74632 710.0907,303.02405 710.0907,300.49934C710.0907,298.25643 690.8334,280.10588 687.24554,278.96714C685.33589,278.36105 685.1458,278.56552 679.54514,287.25023C671.97996,298.98121 665.23015,314.98137 663.0934,326.24834C662.31067,330.37573 660.53198,333.14687 659.19565,332.32097C658.80205,332.0777 657.8566,332.8615 657.09468,334.06273C656.33275,335.26397 654.83732,337.18583 653.77149,338.33356C652.08279,340.15199 652.00175,340.48483 653.14124,340.92209C655.23095,341.72399 658.4696,340.61145 657.95433,339.2687C657.68352,338.56297 657.89986,338.23413 658.50434,338.43271C660.01766,338.92985 660.16696,344.47917 658.76534,348.13422C656.34205,354.45354 649.36834,359.54563 644.41089,358.61562C642.14945,358.19136 641.70461,358.3715 641.31269,359.8702C640.59684,362.60761 641.64155,410.24928 642.43573,411.08394C642.87064,411.54101 644.45699,411.17948 646.54241,410.148C648.41132,409.22361 651.37449,408.24041 653.12721,407.96311C659.22113,406.999 659.86557,406.72135 661.04209,404.55302L662.22537,402.37224L662.25727,404.932C662.27481,406.33987 661.57214,409.31086 660.69578,411.5342C659.81942,413.75755 659.1024,416.11376 659.1024,416.77022C659.1024,417.71692 659.43197,417.78742 660.69578,417.11105C661.57214,416.64203 662.28917,415.68925 662.28917,414.99373C662.28917,413.96002 662.50732,413.91023 663.48421,414.72097C665.26014,416.19486 664.94191,417.40151 662.48834,418.49698C661.28334,419.035 659.60392,420.51724 658.75628,421.79087C657.047,424.35918 651.35568,427.46805 648.36323,427.46805C645.50068,427.46805 642.37186,429.12968 642.37186,430.64991C642.37186,432.76081 643.20493,433.067 645.59103,431.83311C646.81227,431.20157 649.72608,430.45984 652.06616,430.18481C657.75951,429.51566 661.82333,427.53523 662.1454,425.27285C662.28542,424.2893 662.75102,423.48458 663.18005,423.48458C664.27213,423.48458 663.49636,431.31691 662.06495,434.74275C660.78401,437.80847 656.20712,443.40189 654.9795,443.40189C653.78555,443.40189 652.16774,445.30365 652.50387,446.31202C653.0152,447.84601 656.12104,446.49024 660.38333,442.87245C662.62148,440.97274 664.9518,439.42808 665.56183,439.43986C667.88973,439.48484 655.60207,448.97661 653.20685,448.98364C652.28668,448.98634 650.50694,449.52411 649.25185,450.17868C647.99677,450.83325 646.48571,451.36881 645.89394,451.36881C645.30218,451.36881 644.41367,452.12432 643.91947,453.04773C642.59162,455.52886 644.04305,456.55579 646.8613,455.12917C648.11664,454.4937 651.65333,453.51967 654.72059,452.96467C661.21323,451.78986 662.28479,451.12819 662.30137,448.28367C662.31012,446.78218 662.51009,446.50058 663.00864,447.28767C663.82469,448.57605 663.33083,453.93707 662.08225,457.344C658.92972,465.94613 652.59999,471.04131 645.99149,470.29644L642.37186,469.88845L642.37186,483.74442L642.37186,497.60038L644.76433,499.05532C646.08018,499.85553 648.67939,500.96807 650.54035,501.52762C652.4013,502.08717 654.46167,502.74868 655.11894,502.99764C657.59112,503.93405 673.3234,506.46813 680.4326,507.07504C684.49605,507.42193 688.05128,507.93635 688.33313,508.2182C689.13742,509.02249 699.77155,508.81777 704.9785,507.89775zM634.57354,471.72856C634.28945,426.96088 633.49878,401.43111 632.41321,401.9739C631.90914,402.22593 631.64531,410.12666 631.69491,423.48458C631.79211,449.66398 632.8347,505.59151 633.25064,506.93809C634.49149,510.95534 634.77464,503.41936 634.57354,471.72856zM653.29816,467.32855C655.78952,465.80949 659.62054,460.68383 659.93288,458.45171C660.39644,455.13889 659.82744,453.29587 658.30571,453.18124C657.42935,453.11523 656.71232,453.39745 656.71232,453.8084C656.71232,454.21935 655.94727,454.55558 655.0122,454.55558C652.45963,454.55558 646.93992,456.35591 645.35946,457.70396C643.67095,459.14417 643.56062,461.1949 645.10281,462.4748C646.01816,463.23448 646.87821,462.84265 649.50568,460.46889C651.30159,458.8464 653.02809,457.77601 653.34234,458.09027C654.00506,458.75298 649.19185,463.03534 646.5545,464.12948C644.33339,465.05093 644.23414,466.51711 646.35532,467.07181C647.23169,467.30099 647.94871,467.80519 647.94871,468.19226C647.94871,469.39374 650.61792,468.96277 653.29816,467.32855zM622.03299,437.70804C622.03299,419.91525 622.59606,409.94082 620.86118,409.94082C619.50142,409.94082 619.68936,419.63391 619.68936,437.4267C619.68936,455.21949 618.67579,516.64369 620.86118,516.67954C623.04657,516.7154 622.03299,455.50083 622.03299,437.70804zM646.68851,449.29184C648.57534,448.5678 648.20939,446.96319 645.91949,445.91985C644.80342,445.41133 643.54863,444.99527 643.13107,444.99527C642.05143,444.99527 642.18967,447.68118 643.32789,448.8194C644.41308,449.90459 644.90977,449.97441 646.68851,449.29184zM650.33879,445.06166C650.33879,444.66 649.89065,444.15053 649.34292,443.92952C648.79519,443.70851 649.42259,443.48745 650.73713,443.43828C653.42852,443.3376 655.40491,441.89389 658.42141,437.82504C660.80971,434.60355 661.30368,429.57287 659.16879,430.21365C657.55568,430.6978 654.07267,431.42569 649.59374,432.21464C645.17949,432.99221 642.53594,435.71285 644.39158,437.56849C645.45374,438.63066 645.91703,438.58796 648.56019,437.18421C650.19568,436.31562 651.4442,435.2082 651.33465,434.72327C651.22511,434.23834 651.67324,433.84158 652.33052,433.84158C652.98779,433.84158 653.52428,434.46898 653.52272,435.23579C653.52086,436.15145 652.0178,437.31365 649.14375,438.62174C644.41458,440.77414 644.14895,441.10467 645.94821,442.59791C646.60065,443.1394 646.95693,443.8697 646.73994,444.22081C646.52294,444.57191 646.79577,445.04076 647.34623,445.26267C648.99728,445.92831 650.33879,445.8382 650.33879,445.06166zM645.55863,425.57386C645.55863,424.97025 644.99354,424.0074 644.30287,423.43419C643.26367,422.57173 642.92805,422.58465 642.35672,423.50909C641.55869,424.80033 642.80382,426.67135 644.46114,426.67135C645.06476,426.67135 645.55863,426.17748 645.55863,425.57386zM648.7454,423.93984C648.7454,423.75204 648.18203,423.03502 647.49346,422.34645C646.35532,421.20832 646.48207,421.09221 648.88767,421.06917C651.92208,421.04012 653.40305,420.0802 656.57888,416.08393C658.27665,413.94756 658.75266,412.62494 658.48358,410.7916C658.07637,408.01706 657.99679,408.0022 651.65625,409.51683C647.345,410.5467 643.96525,412.51419 643.96525,413.99407C643.96525,415.38228 647.31798,415.59218 649.25188,414.32504C651.29109,412.98889 652.51035,413.14091 651.59776,414.61752C650.9662,415.63941 646.44373,417.90774 645.03788,417.90774C644.44793,417.90774 643.96525,418.44551 643.96525,419.10279C643.96525,419.76005 644.35364,420.29782 644.82833,420.29782C645.30303,420.29782 645.54044,420.74596 645.35592,421.29368C645.17141,421.84141 645.58967,422.72629 646.2854,423.26008C647.56367,424.2408 648.7454,424.56735 648.7454,423.93984zM655.06196,423.11571C657.3161,421.95004 658.30571,420.43766 658.30571,418.15839C658.30571,417.28905 657.56772,417.58928 655.69762,419.21942C654.26318,420.46981 652.20174,422.10145 651.11664,422.84528L649.14375,424.1977L650.97587,424.23949C651.98353,424.26247 653.82227,423.75677 655.06196,423.11571zM597.54345,533.19733C599.57435,540.05053 600.76126,408.69504 598.62118,406.75405C597.65861,405.88103 597.46363,410.87402 597.61686,415.47122C597.86703,422.97731 595.07379,540.41108 597.54345,533.19733zM653.17217,353.9732C656.1289,351.24871 658.36312,346.19874 657.71249,343.71074C657.41928,342.58949 656.85604,342.35552 655.35626,342.73193C654.27226,343.004 652.01285,343.26259 650.33534,343.30658C648.65785,343.35056 647.4398,343.63648 647.62859,343.94195C647.81738,344.24742 647.2969,344.71156 646.47196,344.9734C645.64703,345.23521 644.31166,346.17919 643.50448,347.07112C642.24708,348.46052 642.20351,348.79819 643.20023,349.42866C645.07583,350.61501 646.29876,350.3179 648.46777,348.14889C649.58978,347.02688 650.72596,346.32705 650.99262,346.59372C651.89637,347.49747 649.88738,349.61469 646.52732,351.29955C642.83065,353.15321 642.44297,354.98248 645.56282,355.85058C649.20166,356.86309 650.34096,356.582 653.17217,353.9732zM644.36359,343.35064C644.36359,342.37364 643.71794,341.73194 642.57104,341.56906C641.58513,341.42904 640.77848,341.69792 640.77848,342.16658C640.77848,342.63523 641.13699,343.01868 641.57517,343.01868C642.01335,343.01868 642.32941,343.28756 642.27752,343.6162C642.06164,344.98344 642.43019,345.52209 643.36773,345.20958C643.91545,345.027 644.36359,344.19048 644.36359,343.35064zM649.54209,340.62861C649.54209,340.19042 648.73544,339.82101 647.74954,339.80768C646.10999,339.78553 646.08012,339.71183 647.39958,338.94432C648.19301,338.4828 649.32312,338.28974 649.91094,338.51531C650.49876,338.74088 652.26954,337.63559 653.84601,336.05912C656.13965,333.76547 656.71232,332.58264 656.71232,330.13882C656.71232,327.22771 655.77866,326.16954 654.72059,327.88153C654.44978,328.31971 653.03836,328.67822 651.5841,328.67822C648.73322,328.67822 643.59273,330.53413 642.77389,331.85903C642.23737,332.72715 644.14525,335.05176 645.39428,335.05176C645.80467,335.05176 647.03706,334.34648 648.13293,333.48446C649.22879,332.62246 650.33561,332.12737 650.59251,332.38427C651.48973,333.2815 646.58099,336.64514 644.37441,336.64514C643.71119,336.64514 643.16856,337.00365 643.16856,337.44183C643.16856,337.88001 643.75022,338.23852 644.46114,338.23852C645.47996,338.23852 645.55729,338.47523 644.82624,339.35608C644.11402,340.21427 644.1376,340.56949 644.92786,340.88658C646.73227,341.61058 649.54209,341.45349 649.54209,340.62861zM637.00569,337.7623C637.69826,337.06971 636.77325,335.05176 635.76321,335.05176C634.51616,335.05176 629.7205,331.64935 629.24804,330.4294C629.02711,329.85892 629.20075,329.6112 629.63391,329.8789C630.06707,330.1466 630.42148,329.98597 630.42148,329.52193C630.42148,328.07584 631.56118,328.58169 634.42817,331.30028C637.09057,333.82487 639.40005,334.71656 638.98592,333.06003C638.87638,332.62185 638.55373,332.341 638.26893,332.43594C637.98413,332.53087 637.54566,331.78999 637.29456,330.78951C637.04346,329.78905 636.02169,328.59412 635.02396,328.13413C632.61466,327.02335 625.51879,325.34843 625.08023,325.78698C624.1606,326.70661 628.43737,332.89867 631.72711,335.41057C635.51351,338.3017 636.17263,338.59536 637.00569,337.7623zM653.27246,326.87769C656.21476,326.09075 656.84725,326.16329 658.27009,327.45095C659.72317,328.76597 659.89909,328.78278 659.89909,327.60666C659.89909,326.88147 660.28418,326.28814 660.75485,326.28814C661.28425,326.28814 661.52594,324.69305 661.38861,322.10552C661.21715,318.87513 661.43044,317.92287 662.32541,317.92287C663.58151,317.92287 665.60506,312.99759 665.04282,311.30878C664.85289,310.73831 665.02301,310.47272 665.42085,310.7186C665.81871,310.96449 666.5855,309.81794 667.12483,308.17073C668.2673,304.68151 673.87355,293.33385 675.88609,290.437C681.95515,281.70122 683.90782,277.59502 682.62729,276.26114C682.19862,275.81461 675.83293,278.08142 675.83293,278.68059C675.83293,279.01209 675.14579,279.28331 674.30594,279.28331C673.4661,279.28331 672.65945,279.55219 672.51338,279.88082C672.36732,280.20946 670.27601,281.47209 667.86601,282.68668C662.46681,285.40776 656.99941,288.54594 654.19926,290.53113C653.03617,291.35572 651.78138,292.03165 651.41084,292.03321C651.0403,292.03476 649.19014,293.35408 647.29937,294.96504L643.86161,297.89404L645.70599,298.91745C646.72039,299.48031 648.14788,299.95355 648.87819,299.96907C649.60848,299.98459 650.33048,300.37075 650.48264,300.82719C650.63478,301.28363 652.18833,301.80305 653.93497,301.98144C659.05578,302.50448 662.28917,303.31329 662.28917,304.07119C662.28917,304.99027 658.10088,304.98103 655.75394,304.05674C653.05442,302.9936 644.80982,301.27724 644.39502,301.69204C644.19813,301.88894 644.54291,303.47035 645.16121,305.2063C646.513,309.00163 646.69923,317.78338 645.47637,320.0683C644.2873,322.2901 645.66568,323.06449 650.07392,322.65126C654.51575,322.23488 656.61359,320.88309 657.38016,317.94332C657.7887,316.37655 658.14968,315.97165 658.44554,316.74827C659.71435,320.07876 655.55802,323.65762 649.98547,324.03291C648.36553,324.14201 646.86489,324.51481 646.65071,324.86136C646.43652,325.20792 645.57804,325.49145 644.74296,325.49145C643.90787,325.49145 642.8133,326.25999 642.31059,327.19932C641.41438,328.8739 641.47947,328.89619 645.6502,328.34292C647.9897,328.03258 651.41972,327.37322 653.27246,326.87769zM639.1851,326.28814C639.1851,325.84996 638.82658,325.49145 638.3884,325.49145C637.95022,325.49145 637.59171,324.86067 637.59171,324.08971C637.59171,323.31875 636.86153,322.23197 635.9691,321.67463C633.85123,320.352 632.79927,317.45569 632.69099,312.64915C632.6428,310.51062 632.50644,308.76092 632.38796,308.76092C632.26946,308.76092 630.30639,310.91502 628.02556,313.54782C624.79518,317.27669 623.98113,318.74326 624.34251,320.18311C624.86821,322.27765 627.82977,323.89807 631.13219,323.89807C632.35819,323.89807 634.01019,324.61509 634.80329,325.49145C636.30422,327.14997 639.1851,327.67376 639.1851,326.28814zM640.16138,320.19136C639.76125,319.38187 639.09137,318.00254 638.67277,317.12618C638.25416,316.24982 638.15577,314.45726 638.45411,313.14272C638.75247,311.82818 639.05039,311.11116 639.11617,311.54934C639.18195,311.98752 639.72771,311.69719 640.32899,310.90414C641.9402,308.77906 642.35338,310.26576 641.35912,314.6107C640.63758,317.76384 640.68488,318.57054 641.62625,319.16559C642.25543,319.5633 643.12872,319.76937 643.5669,319.62352C644.81447,319.20825 643.97036,310.4288 642.23753,305.79682C640.8535,302.09721 640.52018,301.7385 639.22064,302.55007C636.23156,304.41678 634.1931,316.34915 636.28505,319.734C636.61725,320.27151 637.58492,320.7113 638.43542,320.7113C639.28592,320.7113 639.98179,321.12956 639.98179,321.64077C639.98179,322.15198 640.18588,322.36615 640.43534,322.1167C640.68479,321.86725 640.5615,321.00085 640.16138,320.19136zM729.29659,294.69377C742.96504,288.14439 743.3959,287.23237 734.58898,283.49105C726.71323,280.14529 726.85154,280.19244 717.65927,277.71894C712.1117,276.22617 699.663,274.50315 694.42544,274.50315C688.00836,274.50315 687.87661,275.29136 693.58261,279.54531C697.73093,282.63798 699.77086,284.95217 699.18471,285.90059C698.89822,286.36414 699.09328,286.45099 699.64919,286.10742C700.25628,285.73222 703.14855,288.14772 707.54003,292.6975C712.26497,297.59276 715.07047,299.89858 716.35034,299.93859C717.38315,299.97088 723.20897,297.61071 729.29659,294.69377zM580.99854,275.35222C581.45214,274.50467 581.82326,272.75046 581.82326,271.454C581.82326,268.90541 583.35932,267.77012 586.40424,268.06817C587.57721,268.18299 588.1968,267.81088 588.1968,266.9916C588.1968,266.28607 587.52603,265.73954 586.66014,265.73954C585.81498,265.73954 583.80909,264.49991 582.20262,262.98481C579.45682,260.39518 579.31526,260.02511 579.84084,256.81044C580.88677,250.41312 583.20888,246.40433 588.75594,241.41982C597.22085,233.81336 597.87246,233.10965 597.30339,232.18889C597.00666,231.70877 596.59228,229.48786 596.38254,227.25352C595.78564,220.89497 595.11263,219.77239 591.63806,219.33973C589.96445,219.13134 588.41646,219.11852 588.19805,219.31125C587.46423,219.95883 590.8725,221.92147 592.73088,221.92147C594.47147,221.92147 594.57034,222.21176 594.57034,227.32244C594.57034,231.92817 594.32136,232.89593 592.87933,233.89515C591.94929,234.53961 590.73717,235.49796 590.18576,236.02482C587.67312,236.98767 586.26814,239.50322 584.55453,241.78211C583.05234,243.2509 581.82326,244.72243 581.82326,245.0522C581.82326,246.14364 579.34212,246.62625 577.84636,245.82574C576.82391,245.27855 576.28232,245.31617 576.07137,245.94904C575.63452,247.25959 566.96522,247.84237 565.53717,246.65718C564.48122,245.78083 562.97861,241.6778 560.27141,232.27847C559.70349,230.30666 558.94265,228.35277 558.58066,227.9365C557.43935,226.62404 557.86666,230.06402 559.51588,235.46524C560.38555,238.31341 561.09983,241.61278 561.10318,242.79716C561.10652,243.98154 561.5116,245.8336 562.00334,246.91287C562.89465,248.86904 564.53624,249.30613 574.65303,250.28101C575.74848,250.38657 576.87228,250.50207 577.15036,250.53767C577.42843,250.57326 577.65637,252.30532 577.65688,254.38668C577.6574,256.46803 578.10538,260.94273 578.6524,264.33041C579.19942,267.71812 579.45374,271.93063 579.21755,273.69155C578.76122,277.09373 579.63198,277.90567 580.99854,275.35222zM561.74662,267.17359C563.20735,265.71286 562.88677,264.70886 561.10816,265.17398C560.2312,265.4033 559.67999,265.32185 559.88326,264.99296C560.39394,264.16665 558.78546,258.56931 558.03732,258.56931C557.70348,258.56931 556.74419,259.07104 555.90555,259.68426C554.53631,260.68548 554.49388,261.01059 555.48957,262.87103C556.0994,264.01053 557.09671,264.94285 557.7058,264.94285C558.31488,264.94285 558.59165,265.30136 558.32084,265.73954C557.09583,267.72165 559.98792,268.93228 561.74662,267.17359zM576.23423,240.44456C576.2192,238.72895 574.90844,236.53765 574.27571,237.17037C573.76822,237.67787 575.15208,241.83877 575.82835,241.83877C576.05828,241.83877 576.24093,241.21138 576.23423,240.44456zM551.71908,637.08976C551.3501,636.12752 551.94626,596.95249 552.75707,568.8809C552.90895,563.62273 553.42629,533.14926 553.90668,501.16207C554.38709,469.17488 555.13166,429.0216 555.56128,411.93255C555.99089,394.8435 556.3394,375.59912 556.33576,369.16725C556.32817,355.82345 556.28704,355.92017 562.85011,353.85189C567.00811,352.54155 570.67943,350.98076 571.46626,350.18891C571.68535,349.96842 572.94014,349.2514 574.25468,348.59552C576.50437,347.61747 578.2942,345.96783 580.22988,344.50668C581.76351,343.35826 584.38824,341.1196 586.06262,339.53189C588.24248,338.56211 591.26855,333.61514 592.11434,335.45011C592.46072,336.32646 592.46363,345.10999 592.12081,354.96906C591.77798,364.82813 591.47185,382.36094 591.44052,393.93087C591.4092,405.5008 591.03608,427.19074 590.61138,442.13074C589.70642,473.96516 588.22596,546.20038 588.02181,568.48256C587.94352,577.02708 588.2987,588.49945 588.8111,593.9767C589.32349,599.45396 590.272,609.67154 590.91889,616.68243C591.56577,623.69332 592.33179,631.40132 592.62115,633.81131L593.14725,638.19312L572.64471,638.19312C555.91212,638.19312 552.06439,637.99023 551.71908,637.08976zM591.38357,203.73573C591.38357,202.18598 594.64654,194.08419 595.47754,193.5706C595.91977,193.29729 597.24098,192.93914 598.41355,192.77472C599.58614,192.6103 601.89374,192.24967 603.54157,191.97332C606.25611,191.51808 606.51381,191.62694 606.28414,193.13188C606.14472,194.04543 605.78241,195.04113 605.47899,195.34455C605.17558,195.64795 604.92733,196.65304 604.92733,197.57809C603.51883,202.91983 596.12503,204.26076 591.38357,203.73573z" id="path2067" style="fill:#00990b;fill-opacity:1"/>
</svg>